<?xml version="1.0" standalone="no"?><!DOCTYPE svg PUBLIC "-//W3C//DTD SVG 1.1//EN" "http://www.w3.org/Graphics/SVG/1.1/DTD/svg11.dtd"><svg t="1594105172496" class="icon" viewBox="0 0 1024 1024" version="1.1" xmlns="http://www.w3.org/2000/svg" p-id="8024" xmlns:xlink="http://www.w3.org/1999/xlink" width="200" height="200"><defs><style type="text/css"></style></defs><path d="M849.170732 0c97.404878 0 174.829268 77.42439 174.829268 174.829268v674.341464c0 97.404878-77.42439 174.829268-174.829268 174.829268H174.829268c-97.404878 0-174.829268-77.42439-174.829268-174.829268V174.829268c0-97.404878 77.42439-174.829268 174.829268-174.829268h674.341464z m-64.936586 459.55122H237.268293v272.234146c0 27.473171 19.980488 49.95122 47.453658 49.951219h449.560976c27.473171 0 49.95122-19.980488 49.951219-47.453658v-274.731707z m-357.151219 154.84878v49.95122h-84.917073v-49.95122h84.917073z m127.37561 0v49.95122h-84.917074v-49.95122h84.917074z m127.375609 0v49.95122h-84.917073v-49.95122h84.917073z m-254.751219-102.4v49.95122h-84.917073v-49.95122h84.917073z m127.37561 0v49.95122h-84.917074v-49.95122h84.917074z m127.375609 0v49.95122h-84.917073v-49.95122h84.917073z m-342.165853-239.765854h-49.95122c-27.473171 0-49.95122 19.980488-49.951219 47.453659v89.912195h546.965853V324.682927c0-27.473171-19.980488-49.95122-47.453658-49.95122h-47.453659v84.917073h-109.892683V274.731707h-127.375609v84.917073h-109.892683v-87.414634z m319.687805-34.965853h-49.95122V324.682927h49.95122V237.268293z m-239.765854 0h-49.95122V324.682927h49.95122V237.268293z" fill="#6966FD" p-id="8025"></path></svg>