<?xml version="1.0" standalone="no"?><!DOCTYPE svg PUBLIC "-//W3C//DTD SVG 1.1//EN" "http://www.w3.org/Graphics/SVG/1.1/DTD/svg11.dtd"><svg t="1594105193989" class="icon" viewBox="0 0 1024 1024" version="1.1" xmlns="http://www.w3.org/2000/svg" p-id="9030" xmlns:xlink="http://www.w3.org/1999/xlink" width="200" height="200"><defs><style type="text/css"></style></defs><path d="M849.170732 0c97.404878 0 174.829268 77.42439 174.829268 174.829268v674.341464c0 97.404878-77.42439 174.829268-174.829268 174.829268H174.829268c-97.404878 0-174.829268-77.42439-174.829268-174.829268V174.829268c0-97.404878 77.42439-174.829268 174.829268-174.829268h674.341464zM439.570732 556.956098H274.731707c-19.980488 0-34.965854 14.985366-34.965853 34.965853v164.839025c0 19.980488 14.985366 34.965854 34.965853 34.965853h164.839025c19.980488 0 34.965854-14.985366 34.965853-34.965853v-164.839025c0-17.482927-14.985366-34.965854-34.965853-34.965853z m292.214634 0h-164.839025c-19.980488 0-34.965854 14.985366-34.965853 34.965853v164.839025c0 19.980488 14.985366 34.965854 34.965853 34.965853h164.839025c19.980488 0 34.965854-14.985366 34.965854-34.965853v-164.839025c2.497561-17.482927-14.985366-34.965854-34.965854-34.965853zM399.609756 611.902439l19.980488 19.980488-39.960976 42.458536 39.960976 42.458537-19.980488 19.980488-42.458536-39.960976-39.960976 39.960976-19.980488-19.980488 39.960976-42.458537-39.960976-39.960975 19.980488-19.980488 39.960976 42.458537 42.458536-44.956098z m309.697561 77.42439v29.970732h-117.385366v-29.970732h117.385366z m0-57.443902v29.970732h-117.385366v-29.970732h117.385366zM439.570732 264.741463H274.731707c-19.980488 0-34.965854 14.985366-34.965853 34.965854v164.839024c0 19.980488 14.985366 34.965854 34.965853 34.965854h164.839025c19.980488 0 34.965854-14.985366 34.965853-34.965854V299.707317c0-19.980488-14.985366-34.965854-34.965853-34.965854z m292.214634 0h-164.839025c-19.980488 0-34.965854 14.985366-34.965853 34.965854v164.839024c0 19.980488 14.985366 34.965854 34.965853 34.965854h164.839025c19.980488 0 34.965854-14.985366 34.965854-34.965854V299.707317c2.497561-19.980488-14.985366-34.965854-34.965854-34.965854z m-359.648781 44.956098v57.443902h59.941464v29.970732h-59.941464v59.941464h-29.970731v-59.941464h-57.443903v-29.970732h57.443903v-57.443902h29.970731zM724.292683 367.141463v29.970732h-147.356098v-29.970732H724.292683z" fill="#F7B51B" p-id="9031"></path></svg>