<?xml version="1.0" standalone="no"?><!DOCTYPE svg PUBLIC "-//W3C//DTD SVG 1.1//EN" "http://www.w3.org/Graphics/SVG/1.1/DTD/svg11.dtd"><svg t="1594105206874" class="icon" viewBox="0 0 1024 1024" version="1.1" xmlns="http://www.w3.org/2000/svg" p-id="9588" xmlns:xlink="http://www.w3.org/1999/xlink" width="200" height="200"><defs><style type="text/css"></style></defs><path d="M849.170732 0c97.404878 0 174.829268 77.42439 174.829268 174.829268v674.341464c0 97.404878-77.42439 174.829268-174.829268 174.829268H174.829268c-97.404878 0-174.829268-77.42439-174.829268-174.829268V174.829268c0-97.404878 77.42439-174.829268 174.829268-174.829268h674.341464z m-244.760976 302.204878h-209.795122c-37.463415 0-59.941463 24.97561-67.434146 57.443902l-22.478049 67.434147c0-2.497561-2.497561-2.497561-4.995122-2.497561h-49.951219c-7.492683 0-12.487805 4.995122-12.487805 12.487805v12.487805c0 7.492683 4.995122 12.487805 12.487805 12.487804l17.482926 2.497561c-4.995122 12.487805-9.990244 24.97561-9.990244 39.960976l-7.492682 79.921951v107.395122c0 12.487805 9.990244 24.97561 24.975609 24.97561h37.463415c12.487805 0 24.97561-9.990244 24.97561-24.97561v-29.970731h322.185366v29.970731c0 12.487805 9.990244 24.97561 24.975609 24.97561h37.463415c12.487805 0 24.97561-9.990244 24.97561-24.97561v-94.907317-4.995122-7.492683l-7.492683-79.921951c0-14.985366-2.497561-27.473171-9.990244-39.960976l17.482927-2.497561c7.492683 0 12.487805-4.995122 12.487805-12.487804v-12.487805c0-7.492683-4.995122-12.487805-12.487805-12.487805h-49.95122c-2.497561 0-4.995122 0-7.492683 2.497561l-22.478049-67.434147c-2.497561-37.463415-29.970732-57.443902-62.439024-57.443902z m-247.258536 239.765854c19.980488 0 37.463415 17.482927 37.463414 37.463414s-17.482927 37.463415-37.463414 37.463415-37.463415-17.482927-37.463415-37.463415 17.482927-37.463415 37.463415-37.463414z m284.721951 0c19.980488 0 37.463415 17.482927 37.463414 37.463414s-17.482927 37.463415-37.463414 37.463415-37.463415-17.482927-37.463415-37.463415 17.482927-37.463415 37.463415-37.463414z m-14.985366-192.312195c4.995122 7.492683 9.990244 7.492683 9.990244 17.482926l17.482927 44.956098 4.995122 24.97561c-2.497561 17.482927-22.478049 32.468293-39.960976 32.468292h-239.765854c-17.482927 0-39.960976-14.985366-39.960975-32.468292l4.995122-24.97561 17.482926-42.458537c2.497561-9.990244 4.995122-9.990244 9.990244-17.482926h254.75122z" fill="#38B781" p-id="9589"></path></svg>