<?xml version="1.0" standalone="no"?><!DOCTYPE svg PUBLIC "-//W3C//DTD SVG 1.1//EN" "http://www.w3.org/Graphics/SVG/1.1/DTD/svg11.dtd"><svg t="1594105151278" class="icon" viewBox="0 0 1024 1024" version="1.1" xmlns="http://www.w3.org/2000/svg" p-id="7164" xmlns:xlink="http://www.w3.org/1999/xlink" width="200" height="200"><defs><style type="text/css"></style></defs><path d="M849.170732 0c97.404878 0 174.829268 77.42439 174.829268 174.829268v674.341464c0 97.404878-77.42439 174.829268-174.829268 174.829268H174.829268c-97.404878 0-174.829268-77.42439-174.829268-174.829268V174.829268c0-97.404878 77.42439-174.829268 174.829268-174.829268h674.341464z m-154.848781 249.756098h-374.634146c-19.980488 0-37.463415 17.482927-37.463415 37.463414v447.063415c0 19.980488 17.482927 37.463415 37.463415 37.463414h27.473171c4.995122 0 9.990244-4.995122 9.990244-9.990243V369.639024c0-4.995122-4.995122-9.990244-9.990244-9.990244h-9.990244c-9.990244 0-17.482927-7.492683-17.482927-17.482926v-37.463415c0-9.990244 7.492683-17.482927 17.482927-17.482927h394.614634c0-19.980488-17.482927-37.463415-37.463415-37.463414z m-227.278049 109.892682h-64.936585c-4.995122 0-7.492683 2.497561-9.990244 7.492683v397.112196c0 4.995122 4.995122 9.990244 9.990244 9.990243h292.214634c19.980488 0 37.463415-17.482927 37.463415-37.463414V369.639024c0-4.995122-4.995122-9.990244-9.990244-9.990244h-54.946342c-4.995122 0-9.990244 4.995122-9.990243 9.990244v224.780488l-92.409757-92.409756-89.912195 92.409756v-224.780488c0-4.995122-2.497561-9.990244-7.492683-9.990244z m144.858537-17.482926h-92.409756c-4.995122 0-7.492683 2.497561-9.990244 7.492683v157.346341l54.946341-54.946341 54.946342 54.946341V349.658537c2.497561-4.995122-2.497561-7.492683-7.492683-7.492683z" fill="#38B781" p-id="7165"></path></svg>