<?xml version="1.0" standalone="no"?><!DOCTYPE svg PUBLIC "-//W3C//DTD SVG 1.1//EN" "http://www.w3.org/Graphics/SVG/1.1/DTD/svg11.dtd"><svg t="1594105227770" class="icon" viewBox="0 0 1024 1024" version="1.1" xmlns="http://www.w3.org/2000/svg" p-id="10692" xmlns:xlink="http://www.w3.org/1999/xlink" width="200" height="200"><defs><style type="text/css"></style></defs><path d="M849.170732 0c97.404878 0 174.829268 77.42439 174.829268 174.829268v674.341464c0 97.404878-77.42439 174.829268-174.829268 174.829268H174.829268c-97.404878 0-174.829268-77.42439-174.829268-174.829268V174.829268c0-97.404878 77.42439-174.829268 174.829268-174.829268h674.341464zM319.687805 249.756098h-9.990244c-4.995122 0-7.492683 2.497561-9.990244 7.492682v2.497561c-2.497561 12.487805-24.97561 114.887805-24.97561 144.858537 0 64.936585 42.458537 92.409756 97.404878 99.902439h2.497561l-14.985366 249.756098c-2.497561 24.97561 14.985366 44.956098 39.960976 44.956097h2.497561c24.97561 0 42.458537-17.482927 42.458537-42.458536v-2.497561l-14.985366-249.756098h2.497561c54.946341-7.492683 94.907317-32.468293 97.404878-92.409756v-4.995122c0-32.468293-24.97561-147.356098-24.97561-147.356098 0-4.995122-4.995122-7.492683-9.990244-9.990243h-12.487805c-4.995122 0-7.492683 2.497561-9.990244 7.492682v139.863415c0 9.990244-9.990244 19.980488-27.47317 17.482927-9.990244 2.497561-19.980488-7.492683-17.482927-17.482927V267.239024c0-9.990244-7.492683-17.482927-14.985366-17.482926H392.117073c-9.990244 0-17.482927 7.492683-17.482927 14.985365V394.614634c2.497561 9.990244-7.492683 19.980488-17.482926 17.482927-14.985366 2.497561-24.97561-7.492683-27.473171-17.482927v-139.863414s-2.497561-4.995122-9.990244-4.995122z m284.721951 27.47317v477.034147c0 19.980488 14.985366 37.463415 37.463415 37.463414 17.482927 0 34.965854-17.482927 37.463414-37.463414v-137.365854c24.97561-2.497561 44.956098-27.473171 44.956098-54.946341v-49.95122c0-32.468293-2.497561-84.917073-7.492683-117.385366v-4.995122c-4.995122-34.965854-27.473171-82.419512-54.946341-109.892683l-9.990244-9.990244c-27.473171-29.970732-47.453659-22.478049-47.453659 7.492683z m-174.829268 219.785366v7.492683H369.639024v-7.492683h59.941464z" fill="#FC9637" p-id="10693"></path></svg>