<?xml version="1.0" standalone="no"?><!DOCTYPE svg PUBLIC "-//W3C//DTD SVG 1.1//EN" "http://www.w3.org/Graphics/SVG/1.1/DTD/svg11.dtd"><svg t="1594105204291" class="icon" viewBox="0 0 1024 1024" version="1.1" xmlns="http://www.w3.org/2000/svg" p-id="9450" xmlns:xlink="http://www.w3.org/1999/xlink" width="200" height="200"><defs><style type="text/css"></style></defs><path d="M849.170732 0c97.404878 0 174.829268 77.42439 174.829268 174.829268v674.341464c0 97.404878-77.42439 174.829268-174.829268 174.829268H174.829268c-97.404878 0-174.829268-77.42439-174.829268-174.829268V174.829268c0-97.404878 77.42439-174.829268 174.829268-174.829268h674.341464zM599.414634 434.57561h-194.809756l-17.482927 17.482927-34.965853 37.463414c-9.990244 9.990244-19.980488 19.980488-27.473171 29.970732-12.487805 12.487805-19.980488 22.478049-27.473171 32.468293-7.492683 9.990244-12.487805 17.482927-17.482927 27.47317s-7.492683 17.482927-7.492683 24.97561c-2.497561 4.995122-2.497561 12.487805-2.497561 17.482927V669.346341c0 9.990244 2.497561 19.980488 4.995122 27.473171 4.995122 7.492683 9.990244 14.985366 14.985366 19.980488 7.492683 4.995122 14.985366 9.990244 22.478049 12.487805 7.492683 2.497561 14.985366 4.995122 22.478049 4.995122h329.678049c9.990244 0 17.482927-2.497561 24.975609-4.995122 7.492683-2.497561 14.985366-7.492683 19.980488-14.985366s9.990244-12.487805 14.985366-22.478049c2.497561-7.492683 4.995122-14.985366 4.995122-22.478049V629.385366c0-7.492683 0-14.985366-2.497561-22.478049-2.497561-7.492683-4.995122-14.985366-9.990244-24.97561s-9.990244-17.482927-17.482927-29.970731c-7.492683-9.990244-17.482927-22.478049-27.473171-34.965854l-27.47317-29.970732-22.478049-27.47317c-4.995122-4.995122-9.990244-12.487805-17.482927-17.482927l-4.995122-7.492683z m-99.902439 67.434146c9.990244 0 17.482927 2.497561 24.97561 4.995122 7.492683 2.497561 14.985366 7.492683 19.980488 14.985366 4.995122 4.995122 9.990244 12.487805 14.985366 19.980488 2.497561 7.492683 4.995122 17.482927 4.995121 24.975609 0 9.990244-2.497561 17.482927-4.995121 24.97561-2.497561 7.492683-7.492683 14.985366-14.985366 22.478049-4.995122 4.995122-12.487805 9.990244-19.980488 14.985366-7.492683 2.497561-17.482927 4.995122-24.97561 4.995122-9.990244 0-17.482927-2.497561-24.97561-4.995122-7.492683-2.497561-14.985366-7.492683-22.478048-14.985366-4.995122-4.995122-9.990244-12.487805-14.985366-22.478049-2.497561-7.492683-4.995122-17.482927-4.995122-24.97561 0-9.990244 2.497561-17.482927 4.995122-24.975609 2.497561-7.492683 7.492683-14.985366 14.985366-19.980488 4.995122-4.995122 12.487805-9.990244 22.478048-14.985366 7.492683-2.497561 14.985366-4.995122 24.97561-4.995122z m0-219.785366c-29.970732 0-57.443902 2.497561-84.917073 9.990244-27.473171 4.995122-49.95122 12.487805-69.931707 19.980488-19.980488 7.492683-37.463415 14.985366-49.95122 22.478049l-24.97561 14.985366c-2.497561 2.497561-4.995122 2.497561-7.492683 4.995122l-4.995122 2.497561c-4.995122 2.497561-7.492683 4.995122-9.990243 7.492682l-7.492683 7.492683c-2.497561 2.497561-2.497561 4.995122-2.497561 7.492683v37.463415c0 9.990244 2.497561 17.482927 9.990244 22.478049 4.995122 4.995122 12.487805 7.492683 19.980487 9.990244H337.170732c9.990244 0 17.482927-2.497561 22.478048-9.990244 4.995122-4.995122 7.492683-12.487805 9.990244-19.980488v-37.463415h264.741464v32.468293c0 9.990244 2.497561 17.482927 9.990244 22.478049 4.995122 4.995122 12.487805 7.492683 19.980488 9.990244H734.282927c9.990244 0 17.482927-2.497561 22.478049-9.990244 4.995122-4.995122 9.990244-12.487805 9.990244-19.980488v-37.463415c0-4.995122 0-7.492683-2.497561-9.990244l-7.492683-7.492683c-2.497561-2.497561-4.995122-2.497561-7.492683-4.995121l-4.995122-2.497561c-4.995122-2.497561-7.492683-4.995122-12.487805-7.492683l-7.492683-2.497561c-4.995122-2.497561-9.990244-4.995122-17.482927-9.990244-12.487805-7.492683-27.473171-14.985366-47.453658-22.478049-19.980488-7.492683-42.458537-14.985366-69.931708-19.980488-24.97561-7.492683-54.946341-9.990244-89.912195-9.990244z" fill="#F7B51B" p-id="9451"></path></svg>