<?xml version="1.0" standalone="no"?><!DOCTYPE svg PUBLIC "-//W3C//DTD SVG 1.1//EN" "http://www.w3.org/Graphics/SVG/1.1/DTD/svg11.dtd"><svg t="1594105197125" class="icon" viewBox="0 0 1024 1024" version="1.1" xmlns="http://www.w3.org/2000/svg" p-id="9174" xmlns:xlink="http://www.w3.org/1999/xlink" width="200" height="200"><defs><style type="text/css"></style></defs><path d="M849.170732 0c97.404878 0 174.829268 77.42439 174.829268 174.829268v674.341464c0 97.404878-77.42439 174.829268-174.829268 174.829268H174.829268c-97.404878 0-174.829268-77.42439-174.829268-174.829268V174.829268c0-97.404878 77.42439-174.829268 174.829268-174.829268h674.341464z m-239.765854 299.707317H252.253659c-27.473171 0-49.95122 19.980488-52.448781 47.453659V691.82439c0 27.473171 19.980488 49.95122 47.453659 52.448781h362.146341c27.473171 0 49.95122-19.980488 52.448781-47.453659v-27.473171L699.317073 699.317073c14.985366 12.487805 37.463415 14.985366 54.946342 4.995122 17.482927-7.492683 27.473171-24.97561 27.47317-42.458536v-274.731708c0-19.980488-9.990244-37.463415-29.970731-44.956097-17.482927-7.492683-34.965854-7.492683-49.95122 2.497561l-2.497561 2.497561-39.960975 29.970731V349.658537c0-27.473171-19.980488-49.95122-47.453659-52.448781l-2.497561 2.497561z m-244.760976 137.365854c4.995122-2.497561 9.990244-2.497561 14.985366 0l2.497561 2.497561 104.897561 69.931707c4.995122 2.497561 7.492683 7.492683 7.492683 14.985366 0 4.995122-2.497561 9.990244-4.995122 12.487805l-2.497561 2.497561-107.395122 72.429268c-4.995122 2.497561-12.487805 4.995122-17.482927 0-4.995122-2.497561-7.492683-7.492683-9.990243-12.487805v-144.858536c2.497561-9.990244 7.492683-14.985366 12.487804-17.482927z" fill="#057514" p-id="9175"></path></svg>