<?xml version="1.0" standalone="no"?><!DOCTYPE svg PUBLIC "-//W3C//DTD SVG 1.1//EN" "http://www.w3.org/Graphics/SVG/1.1/DTD/svg11.dtd"><svg t="1594105163805" class="icon" viewBox="0 0 1024 1024" version="1.1" xmlns="http://www.w3.org/2000/svg" p-id="7594" xmlns:xlink="http://www.w3.org/1999/xlink" width="200" height="200"><defs><style type="text/css"></style></defs><path d="M849.170732 0c97.404878 0 174.829268 77.42439 174.829268 174.829268v674.341464c0 97.404878-77.42439 174.829268-174.829268 174.829268H174.829268c-97.404878 0-174.829268-77.42439-174.829268-174.829268V174.829268c0-97.404878 77.42439-174.829268 174.829268-174.829268h674.341464zM459.55122 359.64878c-64.936585 99.902439-179.82439 144.858537-179.824391 144.858537v277.229268l112.390244-157.346341c-9.990244-9.990244-14.985366-24.97561-14.985366-39.960976 0-34.965854 29.970732-62.439024 64.936586-62.439024s64.936585 27.473171 64.936585 62.439024-29.970732 62.439024-64.936585 62.439025c-7.492683 0-14.985366 0-22.478049-4.995122L304.702439 799.219512l264.741463-97.404878c2.497561-117.385366 82.419512-207.297561 82.419513-207.297561l-192.312195-134.868293z m17.482926-124.878048l-49.951219 59.941463 284.721951 207.297561 47.453659-62.439024-282.224391-204.8z" fill="#CA63E4" p-id="7595"></path></svg>