<?xml version="1.0" standalone="no"?><!DOCTYPE svg PUBLIC "-//W3C//DTD SVG 1.1//EN" "http://www.w3.org/Graphics/SVG/1.1/DTD/svg11.dtd"><svg t="1594105222550" class="icon" viewBox="0 0 1024 1024" version="1.1" xmlns="http://www.w3.org/2000/svg" p-id="10416" xmlns:xlink="http://www.w3.org/1999/xlink" width="200" height="200"><defs><style type="text/css"></style></defs><path d="M849.170732 0c97.404878 0 174.829268 77.42439 174.829268 174.829268v674.341464c0 97.404878-77.42439 174.829268-174.829268 174.829268H174.829268c-97.404878 0-174.829268-77.42439-174.829268-174.829268V174.829268c0-97.404878 77.42439-174.829268 174.829268-174.829268h674.341464zM569.443902 681.834146c-19.980488 12.487805-44.956098 4.995122-64.936585 17.482927-7.492683 2.497561-12.487805 7.492683-14.985366 12.487805l-52.44878 82.419512c-9.990244 14.985366-7.492683 29.970732 7.492683 39.960976 14.985366 9.990244 32.468293 9.990244 42.458536-4.995122 32.468293-42.458537 62.439024-87.414634 94.907317-129.873171 7.492683-12.487805 0-14.985366-12.487805-17.482927z m19.980488-462.04878c-32.468293 19.980488-37.463415 47.453659-14.985366 102.4-34.965854-9.990244-64.936585-27.473171-94.907317-39.960976-12.487805-4.995122-24.97561-17.482927-37.463414-9.990244-37.463415 14.985366-74.926829 32.468293-112.390244 49.95122-22.478049 9.990244-27.473171 27.473171-17.482927 44.956097 7.492683 14.985366 27.473171 19.980488 47.453658 9.990244 12.487805-4.995122 24.97561-9.990244 37.463415-17.482927l12.487805-4.995121c27.473171-14.985366 49.95122-14.985366 77.42439 2.497561 17.482927 12.487805 14.985366 19.980488 2.497561 29.970731-27.473171 27.473171-59.941463 52.44878-82.419512 82.419512-17.482927 22.478049-17.482927 47.453659 4.995122 67.434147 17.482927 17.482927 34.965854 32.468293 52.44878 47.453658l27.473171 24.97561c7.492683 7.492683 14.985366 14.985366 0 17.482927h-2.497561c-24.97561 4.995122-49.95122 12.487805-74.926829 17.482927-17.482927 4.995122-34.965854 19.980488-29.970732 34.965853 4.995122 17.482927 24.97561 29.970732 44.956098 24.97561 49.95122-12.487805 99.902439-22.478049 149.853658-34.965854 24.97561-4.995122 37.463415-32.468293 22.478049-52.44878s-29.970732-37.463415-44.956097-57.443902l-14.985366-9.990244c-22.478049-29.970732-19.980488-37.463415 7.492683-64.936586l14.985365-14.985366c14.985366-14.985366 19.980488-14.985366 29.970732 2.497561l7.492683 14.985366c7.492683 12.487805 14.985366 22.478049 29.970732 22.478049 37.463415-2.497561 72.429268-12.487805 109.892683-22.478049 12.487805-2.497561 19.980488-24.97561 12.487805-37.463414-12.487805-27.473171-32.468293-14.985366-52.448781-14.985366-17.482927 0-34.965854 19.980488-49.951219 4.995122-12.487805-12.487805-19.980488-29.970732-24.97561-47.453659-7.492683-22.478049-24.97561-37.463415-39.960976-59.941463 49.95122 19.980488 79.921951 2.497561 92.409756-22.478049 17.482927-27.473171 12.487805-62.439024-9.990244-82.419512-19.980488-19.980488-54.946341-22.478049-79.921951-7.492683z m-204.8 342.165854c-39.960976 2.497561-77.42439 0-117.385366 0-14.985366 0-27.473171 2.497561-24.975609 17.482926 0 12.487805 12.487805 17.482927 24.975609 17.482927H422.087805c7.492683 0 17.482927 0 7.492683-9.990244l-7.492683-7.492683c-12.487805-9.990244-22.478049-17.482927-37.463415-17.482926z m-129.87317-67.434147c-7.492683 0-17.482927 7.492683-14.985366 17.482927 2.497561 7.492683 7.492683 14.985366 17.482926 14.985366H342.165854c7.492683 0 17.482927 4.995122 19.980487-9.990244 0-9.990244-2.497561-22.478049-14.985365-22.478049-29.970732-4.995122-59.941463-4.995122-92.409756 0z m9.990243-69.931707h-4.995122c-9.990244 0-19.980488 4.995122-19.980487 17.482927 0 12.487805 12.487805 17.482927 24.975609 17.482927 19.980488 0 39.960976-2.497561 62.439025 0h12.487805c29.970732 2.497561 52.44878-7.492683 72.429268-34.965854h-147.356098z" fill="#38B781" p-id="10417"></path></svg>