<?xml version="1.0" standalone="no"?><!DOCTYPE svg PUBLIC "-//W3C//DTD SVG 1.1//EN" "http://www.w3.org/Graphics/SVG/1.1/DTD/svg11.dtd"><svg t="1594215519162" class="icon" viewBox="0 0 1029 1024" version="1.1" xmlns="http://www.w3.org/2000/svg" p-id="3302" xmlns:xlink="http://www.w3.org/1999/xlink" width="200.9765625" height="200"><defs><style type="text/css"></style></defs><path d="M960.609667 766.815154C915.369476 848.313333 851.995706 911.514088 770.492796 956.497865 688.871881 1001.483712 603.617094 1024 514.566068 1024 425.518886 1024 340.146391 1001.483712 258.643184 956.497865 177.02227 911.514088 113.534933 848.313333 68.132375 766.815154 22.729817 685.433205-2.0e-06 600.547513-2.0e-06 512.392312-2.0e-06 423.220324 23.066676 337.664464 69.151527 255.495821 115.228098 173.43217 179.401869 110.336405 261.708627 66.206457 343.897972 22.06527 428.235049 0 514.566068 0 600.88851 0 685.124145 22.06527 767.427353 66.206457 849.616403 110.336405 913.67631 173.43217 959.58667 255.495821 1005.500874 337.664464 1028.449843 423.220324 1028.449843 512.392312 1028.449843 600.547513 1005.837733 685.433205 960.609667 766.815154ZM885.615313 298.273899C847.237099 229.756752 793.734261 177.050072 725.151162 140.191418 656.551797 103.342228 586.332317 84.883918 514.566068 84.883918 442.292017 84.883918 372.011612 103.342228 303.647959 140.191418 235.284011 177.050072 181.781173 229.756752 143.183513 298.273899 104.582008 366.79282 85.24266 438.176962 85.24266 512.334345 85.24266 586.100451 104.232728 656.755866 142.103436 724.372456 180.075882 791.98875 233.136279 844.69543 301.268656 882.512904 369.401032 920.204684 440.481143 939.114604 514.566068 939.114604 588.598053 939.114604 659.734948 920.204684 727.867325 882.512904 795.995857 844.69543 848.94239 791.98875 886.638606 724.372456 924.330682 656.755866 943.207182 586.100451 943.207182 512.334345 943.207182 438.176962 923.981402 366.79282 885.615313 298.273899ZM479.35178 833.443349C405.257096 716.034394 318.088515 626.579078 257.067432 598.623367L400.89775 486.804075 470.637229 660.124747C470.637229 660.124747 583.956858 307.893739 762.656916 190.484488 758.301415 274.347774 740.864918 347.031142 771.375312 436.486458 692.921282 458.850435 531.654467 710.442364 479.35178 833.443349Z" p-id="3303" fill="#ee7979"></path></svg>