<?xml version="1.0" standalone="no"?><!DOCTYPE svg PUBLIC "-//W3C//DTD SVG 1.1//EN" "http://www.w3.org/Graphics/SVG/1.1/DTD/svg11.dtd"><svg t="1594105215508" class="icon" viewBox="0 0 1024 1024" version="1.1" xmlns="http://www.w3.org/2000/svg" p-id="10002" xmlns:xlink="http://www.w3.org/1999/xlink" width="200" height="200"><defs><style type="text/css"></style></defs><path d="M849.170732 0c97.404878 0 174.829268 77.42439 174.829268 174.829268v674.341464c0 97.404878-77.42439 174.829268-174.829268 174.829268H174.829268c-97.404878 0-174.829268-77.42439-174.829268-174.829268V174.829268c0-97.404878 77.42439-174.829268 174.829268-174.829268h674.341464zM449.560976 467.043902l-19.980488 44.956098c-2.497561 7.492683-9.990244 12.487805-17.482927 12.487805h-132.370732l2.497561 4.995122 4.995122 4.995122 214.790244 227.278049 214.790244-227.278049 2.497561-2.497561 2.497561-4.995122h-114.887805L574.439024 591.921951c-2.497561 7.492683-9.990244 9.990244-14.985365 12.487805h-2.497561-2.497561c-7.492683 0-12.487805-2.497561-17.482927-7.492683l-2.497561-2.497561-84.917073-127.37561z m49.951219-159.843902c-59.941463-62.439024-157.346341-62.439024-214.790244 0-42.458537 44.956098-54.946341 107.395122-37.463414 164.839024l2.497561 4.995122h144.858536l32.468293-67.434146c2.497561-7.492683 9.990244-12.487805 19.980488-12.487805 7.492683 0 14.985366 2.497561 17.482926 7.492683l2.497561 2.497561 87.414635 129.873171 19.980487-44.956098c2.497561-7.492683 9.990244-12.487805 17.482927-12.487805H751.765854c19.980488-57.443902 9.990244-124.878049-34.965854-172.331707-59.941463-62.439024-157.346341-62.439024-217.287805 0z" fill="#38B781" p-id="10003"></path></svg>