<?xml version="1.0" standalone="no"?><!DOCTYPE svg PUBLIC "-//W3C//DTD SVG 1.1//EN" "http://www.w3.org/Graphics/SVG/1.1/DTD/svg11.dtd"><svg t="1594105209659" class="icon" viewBox="0 0 1024 1024" version="1.1" xmlns="http://www.w3.org/2000/svg" p-id="9726" xmlns:xlink="http://www.w3.org/1999/xlink" width="200" height="200"><defs><style type="text/css"></style></defs><path d="M849.170732 0c97.404878 0 174.829268 77.42439 174.829268 174.829268v674.341464c0 97.404878-77.42439 174.829268-174.829268 174.829268H174.829268c-97.404878 0-174.829268-77.42439-174.829268-174.829268V174.829268c0-97.404878 77.42439-174.829268 174.829268-174.829268h674.341464z m-127.37561 252.253659h-4.995122c-14.985366 0-39.960976 7.492683-62.439024 29.970731l-109.892683 109.892683-224.780488-14.985366h-2.497561c-7.492683 0-17.482927 2.497561-22.478049 7.492683l-2.497561 2.497561c-17.482927 9.990244-42.458537 34.965854-42.458536 34.965854-7.492683 7.492683-9.990244 14.985366-9.990244 24.97561 0 4.995122 2.497561 14.985366 14.985366 19.980487l29.970731 12.487805c34.965854 12.487805 92.409756 34.965854 124.878049 47.453659L349.658537 589.42439h-82.419513c-4.995122 0-14.985366 2.497561-29.970731 17.482927l-2.497561 2.497561c-7.492683 7.492683-7.492683 14.985366-7.492683 17.482927 0 4.995122 0 12.487805 7.492683 17.482927l7.492683 4.995122c14.985366 9.990244 52.44878 32.468293 82.419512 52.44878l12.487805 19.980488 42.458536 67.434146c2.497561 7.492683 9.990244 9.990244 17.482927 9.990244 7.492683 0 14.985366-2.497561 19.980488-9.990244 17.482927-19.980488 17.482927-29.970732 14.985366-32.468292V674.341463l64.936585-62.439024 57.443903 154.848781c4.995122 12.487805 14.985366 14.985366 19.980487 14.985365 7.492683 0 14.985366-2.497561 19.980488-7.492683h4.995122s24.97561-24.97561 34.965854-39.960975c9.990244-12.487805 9.990244-22.478049 9.990244-29.970732l-12.487805-219.785366v-7.492683l109.892683-109.892683c22.478049-22.478049 29.970732-44.956098 29.970731-62.439024 2.497561-17.482927-2.497561-34.965854-12.487804-44.956098-7.492683-4.995122-19.980488-7.492683-37.463415-7.492682z" fill="#38B781" p-id="9727"></path></svg>