<?xml version="1.0" standalone="no"?><!DOCTYPE svg PUBLIC "-//W3C//DTD SVG 1.1//EN" "http://www.w3.org/Graphics/SVG/1.1/DTD/svg11.dtd"><svg t="1594105123492" class="icon" viewBox="0 0 1024 1024" version="1.1" xmlns="http://www.w3.org/2000/svg" p-id="6294" xmlns:xlink="http://www.w3.org/1999/xlink" width="200" height="200"><defs><style type="text/css"></style></defs><path d="M849.170732 0c97.404878 0 174.829268 77.42439 174.829268 174.829268v674.341464c0 97.404878-77.42439 174.829268-174.829268 174.829268H174.829268c-97.404878 0-174.829268-77.42439-174.829268-174.829268V174.829268c0-97.404878 77.42439-174.829268 174.829268-174.829268h674.341464zM437.073171 344.663415H324.682927v319.687805l54.946341 112.390243 54.946342-112.390243V344.663415z m224.780488-94.907317H549.463415c-19.980488 0-37.463415 17.482927-37.463415 37.463414V324.682927h42.458537c9.990244 0 19.980488 7.492683 19.980487 19.980488s-7.492683 19.980488-19.980487 19.980487h-42.458537v54.946342h42.458537c9.990244 0 19.980488 7.492683 19.980487 19.980488s-7.492683 19.980488-19.980487 19.980488h-42.458537v37.463414H574.439024c9.990244 0 19.980488 7.492683 19.980488 19.980488s-7.492683 19.980488-19.980488 19.980488h-62.439024V574.439024h42.458537c9.990244 0 19.980488 7.492683 19.980487 19.980488s-7.492683 19.980488-19.980487 19.980488h-42.458537v54.946341h42.458537c9.990244 0 19.980488 7.492683 19.980487 19.980488s-9.990244 9.990244-19.980487 9.990244h-42.458537v37.463415c0 19.980488 17.482927 37.463415 37.463415 37.463414h112.390244c19.980488 0 37.463415-17.482927 37.463414-37.463414v-449.560976c0-19.980488-17.482927-37.463415-37.463414-37.463414zM399.609756 249.756098h-37.463415c-19.980488 0-37.463415 17.482927-37.463414 37.463414V324.682927h112.390244v-37.463415c0-19.980488-17.482927-37.463415-37.463415-37.463414z" fill="#639EF6" p-id="6295"></path></svg>