<?xml version="1.0" standalone="no"?><!DOCTYPE svg PUBLIC "-//W3C//DTD SVG 1.1//EN" "http://www.w3.org/Graphics/SVG/1.1/DTD/svg11.dtd"><svg t="1594105176633" class="icon" viewBox="0 0 1024 1024" version="1.1" xmlns="http://www.w3.org/2000/svg" p-id="8168" xmlns:xlink="http://www.w3.org/1999/xlink" width="200" height="200"><defs><style type="text/css"></style></defs><path d="M849.170732 0c97.404878 0 174.829268 77.42439 174.829268 174.829268v674.341464c0 97.404878-77.42439 174.829268-174.829268 174.829268H174.829268c-97.404878 0-174.829268-77.42439-174.829268-174.829268V174.829268c0-97.404878 77.42439-174.829268 174.829268-174.829268h674.341464z m-72.429269 227.278049c-4.995122-2.497561-9.990244-2.497561-17.482926 0l-2.497561 2.497561-521.990244 299.707317c-4.995122 2.497561-7.492683 4.995122-7.492683 9.990244-2.497561 9.990244 0 19.980488 7.492683 24.975609h2.497561l124.878048 49.95122L696.819512 324.682927 427.082927 659.356098v109.892682c0 9.990244 7.492683 17.482927 17.482927 19.980488h4.995122c4.995122 0 7.492683-2.497561 9.990244-4.995122l2.49756-2.497561 74.92683-92.409756 142.360975 57.443903c2.497561 0 2.497561 0 4.995122 2.497561h4.995122c7.492683 0 14.985366-7.492683 17.482927-12.487805v-2.497561l79.921951-482.029268c0-7.492683 0-12.487805-4.995122-17.482927l-4.995122-7.492683z" fill="#639EF6" p-id="8169"></path></svg>