<?xml version="1.0" standalone="no"?><!DOCTYPE svg PUBLIC "-//W3C//DTD SVG 1.1//EN" "http://www.w3.org/Graphics/SVG/1.1/DTD/svg11.dtd"><svg t="1594105169347" class="icon" viewBox="0 0 1024 1024" version="1.1" xmlns="http://www.w3.org/2000/svg" p-id="7880" xmlns:xlink="http://www.w3.org/1999/xlink" width="200" height="200"><defs><style type="text/css"></style></defs><path d="M849.170732 0c97.404878 0 174.829268 77.42439 174.829268 174.829268v674.341464c0 97.404878-77.42439 174.829268-174.829268 174.829268H174.829268c-97.404878 0-174.829268-77.42439-174.829268-174.829268V174.829268c0-97.404878 77.42439-174.829268 174.829268-174.829268h674.341464z m-167.336586 209.795122c-12.487805-12.487805-34.965854-12.487805-47.453658 0l-24.97561 22.478049-24.97561-22.478049-262.243902 257.24878-24.97561-22.478048L224.780488 514.497561l169.834146 164.839024 72.429268-69.931707-24.975609-22.478049 114.887805-112.390244c32.468293 37.463415 44.956098 74.926829 37.463414 117.385366-7.492683 44.956098-32.468293 89.912195-74.926829 132.370732h-187.317073c-57.443902 0-102.4 44.956098-102.4 99.902439H774.243902c0-54.946341-44.956098-99.902439-102.4-99.902439h-24.975609c22.478049-34.965854 39.960976-74.926829 47.453658-114.887805l2.497561-7.492683c12.487805-72.429268-12.487805-139.863415-64.936585-199.804878l77.42439-74.926829-24.97561-22.478049 24.97561-22.478049c12.487805-12.487805 12.487805-34.965854 0-47.453658l-27.473171-24.97561z" fill="#057514" p-id="7881"></path></svg>