<?xml version="1.0" standalone="no"?><!DOCTYPE svg PUBLIC "-//W3C//DTD SVG 1.1//EN" "http://www.w3.org/Graphics/SVG/1.1/DTD/svg11.dtd"><svg t="1594105148238" class="icon" viewBox="0 0 1024 1024" version="1.1" xmlns="http://www.w3.org/2000/svg" p-id="7020" xmlns:xlink="http://www.w3.org/1999/xlink" width="200" height="200"><defs><style type="text/css"></style></defs><path d="M849.170732 0c97.404878 0 174.829268 77.42439 174.829268 174.829268v674.341464c0 97.404878-77.42439 174.829268-174.829268 174.829268H174.829268c-97.404878 0-174.829268-77.42439-174.829268-174.829268V174.829268c0-97.404878 77.42439-174.829268 174.829268-174.829268h674.341464zM546.965854 534.478049h-62.439025c-24.97561 0-44.956098 7.492683-67.434146 22.478049-24.97561 17.482927-37.463415 37.463415-42.458537 67.434146-2.497561 32.468293 0 69.931707-2.497561 104.897561 2.497561 0 9.990244 2.497561 14.985366 2.497561l22.478049 4.995122c32.468293 7.492683 64.936585 14.985366 99.902439 14.985366 24.97561 0 52.44878 0 77.42439-2.497561 19.980488-2.497561 42.458537-9.990244 62.439025-17.482927 2.497561 0 2.497561-2.497561 2.497561-7.492683 2.497561-29.970732 2.497561-57.443902 2.497561-82.419512s-7.492683-44.956098-19.980488-62.439025c-22.478049-27.473171-49.95122-42.458537-82.419512-42.458536l-4.995122-2.497561z m-132.370732-94.907317h-74.926829c-14.985366 0-27.473171 2.497561-39.960976 7.492683-39.960976 14.985366-69.931707 54.946341-69.931707 97.404878v84.917073c0 2.497561 0 2.497561 2.497561 7.492683 27.473171 7.492683 57.443902 14.985366 84.917073 17.482927 9.990244 0 24.97561 2.497561 34.965854 2.497561v-22.478049c0-9.990244 0-17.482927 2.497561-27.473171l2.497561-4.995122c9.990244-42.458537 32.468293-64.936585 64.936585-82.419512l4.995122-2.497561c7.492683-2.497561 9.990244-2.497561 17.482927-7.492683-19.980488-17.482927-29.970732-39.960976-29.970732-69.931707z m272.234146 0h-67.434146c0 29.970732-9.990244 54.946341-32.468293 72.429268 2.497561 0 7.492683 2.497561 7.492683 2.497561 17.482927 7.492683 34.965854 17.482927 49.95122 32.468293 19.980488 24.97561 32.468293 47.453659 32.468292 79.921951v24.97561c14.985366-2.497561 24.97561-2.497561 39.960976-4.995122l9.990244-2.497561c22.478049-4.995122 44.956098-12.487805 67.434146-22.478049 2.497561 0 2.497561-2.497561 2.497561-4.995122v-24.97561-44.956097c0-14.985366-2.497561-32.468293-9.990244-47.453659-19.980488-37.463415-52.44878-59.941463-99.902439-59.941463zM516.995122 349.658537c-44.956098 0-84.917073 34.965854-84.917073 82.419512 2.497561 44.956098 34.965854 84.917073 79.921951 87.414634h9.990244c42.458537-2.497561 77.42439-37.463415 77.42439-82.419512v-4.995122c-2.497561-44.956098-42.458537-82.419512-82.419512-82.419512z m139.863415-94.907317c-47.453659 0-84.917073 34.965854-84.917074 82.419512 27.473171 14.985366 44.956098 42.458537 49.95122 79.921951 9.990244 2.497561 19.980488 7.492683 34.965854 7.492683 44.956098 0 82.419512-37.463415 82.419512-82.419512v-4.995122c-2.497561-44.956098-39.960976-82.419512-82.419512-82.419512z m-284.721952 4.995121c-47.453659 0-84.917073 34.965854-84.917073 82.419513 0 44.956098 37.463415 82.419512 84.917073 82.419512 14.985366 0 32.468293-2.497561 42.458537-9.990244 2.497561-29.970732 17.482927-54.946341 39.960976-69.931707v-2.497561c0-47.453659-39.960976-82.419512-82.419513-82.419513z" fill="#F7B51B" p-id="7021"></path></svg>